<svg width="119" height="25" viewBox="0 0 119 25" fill="none" xmlns="http://www.w3.org/2000/svg">
<g filter="url(#filter0_d_700_3969)">
<path fill-rule="evenodd" clip-rule="evenodd" d="M21.9683 12.5798H16.6683L15.2683 15.9998H12.9683L19.4083 0.839844H19.5483L25.9883 15.9998H23.3083L21.9683 12.5798ZM21.1883 10.5798L19.3683 5.97984L17.4883 10.5798H21.1883ZM12.84 1.43984V3.67984H6.34V3.68033L4 3.68025V1.43984H12.84ZM4 7.78V15.9998H6.34V9.99984H12V7.77984H7V7.78H4ZM32.7727 3.41984C33.746 3.41984 34.8593 3.74651 36.1127 4.39984L36.9927 2.61984C36.366 2.21984 35.686 1.91318 34.9527 1.69984C34.2327 1.47318 33.3927 1.35984 32.4327 1.35984C31.1127 1.41318 30.046 1.80651 29.2327 2.53984C28.4327 3.25984 28.0327 4.21318 28.0327 5.39984C28.0327 6.21318 28.226 6.89318 28.6127 7.43984C29.0127 7.97318 29.486 8.39318 30.0327 8.69984C30.5793 8.99318 31.266 9.29318 32.0927 9.59984C32.8927 9.90651 33.5127 10.2465 33.9527 10.6198C34.406 10.9932 34.6327 11.4598 34.6327 12.0198C34.6327 12.7265 34.366 13.2532 33.8327 13.5998C33.2993 13.9332 32.6793 14.0998 31.9727 14.0998C31.3993 14.0998 30.7727 13.9798 30.0927 13.7398C29.426 13.4865 28.846 13.1732 28.3527 12.7998L27.3127 14.6198C27.9793 15.0998 28.7393 15.4798 29.5927 15.7598C30.446 16.0265 31.3127 16.1598 32.1927 16.1598C33.1927 16.1598 34.0593 15.9732 34.7927 15.5998C35.526 15.2265 36.086 14.7265 36.4727 14.0998C36.8593 13.4732 37.0527 12.7732 37.0527 11.9998C37.0527 11.1465 36.886 10.4398 36.5527 9.87984C36.2193 9.31984 35.7927 8.87984 35.2727 8.55984C34.766 8.22651 34.1527 7.93318 33.4327 7.67984C32.486 7.31984 31.746 6.95984 31.2127 6.59984C30.6927 6.22651 30.4327 5.76651 30.4327 5.21984C30.4327 4.65984 30.6393 4.21984 31.0527 3.89984C31.4793 3.57984 32.0527 3.41984 32.7727 3.41984ZM51.9533 15.9998H49.6133V9.79984H42.4533V15.9998H40.1133V1.43984H42.4533V7.57984H49.6133V1.43984H51.9533V15.9998ZM58.2931 15.9998V1.43984H55.9531V15.9998H58.2931ZM61.4008 8.73984C61.4008 7.40651 61.7341 6.17318 62.4008 5.03984C63.0674 3.89318 63.9674 2.97984 65.1008 2.29984C66.2474 1.61984 67.4941 1.27984 68.8408 1.27984C70.1741 1.27984 71.4074 1.61984 72.5408 2.29984C73.6874 2.97984 74.6008 3.89318 75.2808 5.03984C75.9608 6.18651 76.3008 7.41984 76.3008 8.73984C76.3008 10.0865 75.9608 11.3265 75.2808 12.4598C74.6141 13.5932 73.7075 14.4932 72.5608 15.1598C71.4141 15.8265 70.1741 16.1598 68.8408 16.1598C67.4941 16.1598 66.2474 15.8332 65.1008 15.1798C63.9674 14.5132 63.0674 13.6132 62.4008 12.4798C61.7341 11.3465 61.4008 10.0998 61.4008 8.73984ZM63.8008 8.73984C63.8008 9.68651 64.0274 10.5532 64.4808 11.3398C64.9341 12.1265 65.5474 12.7532 66.3208 13.2198C67.1074 13.6865 67.9674 13.9198 68.9008 13.9198C69.8208 13.9198 70.6608 13.6932 71.4208 13.2398C72.1808 12.7732 72.7808 12.1465 73.2208 11.3598C73.6741 10.5598 73.9008 9.68651 73.9008 8.73984C73.9008 7.79318 73.6741 6.91984 73.2208 6.11984C72.7674 5.31984 72.1541 4.68651 71.3808 4.21984C70.6075 3.75318 69.7608 3.51984 68.8408 3.51984C67.9074 3.51984 67.0541 3.75318 66.2808 4.21984C65.5208 4.68651 64.9141 5.31984 64.4608 6.11984C64.0208 6.91984 63.8008 7.79318 63.8008 8.73984ZM81.7102 6.33984L91.5 16L101.44 15.9998V13.7598H93.84V9.79984H100.36V7.55984H93.84V3.67984H101.16V1.43984H91.5V12.7164C87.5618 8.71387 83.6324 4.79126 79.5302 0.939844H79.4102V15.9998H81.7702L81.7102 6.33984ZM114.324 3.67984V1.43984H104.664V15.9998H114.604V13.7598H107.004V9.79984H113.524V7.55984H107.004V3.67984H114.324Z" fill="black"/>
</g>
<defs>
<filter id="filter0_d_700_3969" x="0" y="0.839844" width="118.604" height="23.32" filterUnits="userSpaceOnUse" color-interpolation-filters="sRGB">
<feFlood flood-opacity="0" result="BackgroundImageFix"/>
<feColorMatrix in="SourceAlpha" type="matrix" values="0 0 0 0 0 0 0 0 0 0 0 0 0 0 0 0 0 0 127 0" result="hardAlpha"/>
<feOffset dy="4"/>
<feGaussianBlur stdDeviation="2"/>
<feComposite in2="hardAlpha" operator="out"/>
<feColorMatrix type="matrix" values="0 0 0 0 0 0 0 0 0 0 0 0 0 0 0 0 0 0 0.25 0"/>
<feBlend mode="normal" in2="BackgroundImageFix" result="effect1_dropShadow_700_3969"/>
<feBlend mode="normal" in="SourceGraphic" in2="effect1_dropShadow_700_3969" result="shape"/>
</filter>
</defs>
</svg>
